# xmcd CD database file
#
# Track frame offsets:
#	150
#	16792
#	35368
#	56620
#	71795
#	83861
#	97643
#	119578
#	144450
#	158002
#	174505
#	184130
#	193794
#	217155
#	233881
#
# Disc length: 3396 seconds
#
# Revision: 0
# Processed by: cddbd v1.5.2PL0 Copyright (c) Steve Scherf et al.
# Submitted via: CDex 1.51
#
DISCID=cc0d420f
DTITLE=Nó em Pingo d'Água - Choro 100 - Play Along Choro
DYEAR=2009
DGENRE=Choro
TTITLE0=Ainda Me Recordo
TTITLE1=Assanhado
TTITLE2=Chorando Baixinho
TTITLE3=Choro Negro
TTITLE4=Dança de Urso
TTITLE5=Delicado
TTITLE6=Gaúcho
TTITLE7=Noites Cariocas
TTITLE8=Numa Seresta
TTITLE9=Rosa
TTITLE10=Sons de Carrilhões
TTITLE11=Sons de Carrilhões [2]
TTITLE12=Tenebroso
TTITLE13=Um a Zero
TTITLE14=Vibrações
EXTD=YEAR: 2009
EXTT0=
EXTT1=
EXTT2=
EXTT3=
EXTT4=
EXTT5=
EXTT6=
EXTT7=
EXTT8=
EXTT9=
EXTT10=
EXTT11=
EXTT12=
EXTT13=
EXTT14=
PLAYORDER=
